0
SECTION
2
HEADER
9
$ACADVER
1
AC1015
9
$INSUNITS
70
4
0
ENDSEC
0
SECTION
2
TABLES
0
TABLE
2
LAYER
70
1
0
LAYER
2
PROFILE
70
0
62
7
6
CONTINUOUS
0
LAYER
2
DIM
70
0
62
1
6
CONTINUOUS
0
ENDTAB
0
ENDSEC
0
SECTION
2
ENTITIES
0
LINE
8
PROFILE
10
0.0
20
0.0
30
0.0
11
0.0
21
130.0
31
0.0
0
LINE
8
PROFILE
10
0.0
20
0.0
30
0.0
11
30.0
21
0.0
31
0.0
0
LINE
8
PROFILE
10
30.0
20
0.0
30
0.0
11
30.0
21
40.0
31
0.0
0
LINE
8
PROFILE
10
30.0
20
40.0
30
0.0
11
150.0
21
55.0
31
0.0
0
LINE
8
PROFILE
10
150.0
20
55.0
30
0.0
11
150.0
21
130.0
31
0.0
0
LINE
8
PROFILE
10
150.0
20
130.0
30
0.0
11
162.0
21
130.0
31
0.0
0
LINE
8
PROFILE
10
162.0
20
130.0
30
0.0
11
162.0
21
42.0
31
0.0
0
LINE
8
PROFILE
10
162.0
20
42.0
30
0.0
11
150.0
21
42.0
31
0.0
0
CIRCLE
8
PROFILE
10
135.0
20
48.0
30
0.0
40
11.0
0
TEXT
8
DIM
10
65.0
20
-12.0
30
0.0
40
5.0
1
150 mm OUTSET
0
TEXT
8
DIM
10
8.0
20
-8.0
30
0.0
40
4.0
1
30 mm FLANGE
0
TEXT
8
DIM
10
152.0
20
-8.0
30
0.0
40
4.0
1
12 mm LIP
0
ENDSEC
0
EOF
